<svg width="256" height="256" viewBox="0 0 256 256" fill="none" xmlns="http://www.w3.org/2000/svg">
  <rect width="256" height="256" rx="64" fill="#F4EEE7"/>
  <rect x="20" y="20" width="216" height="216" rx="52" stroke="#7F4F2A" stroke-opacity="0.22" stroke-width="2"/>
  <path d="M156.476 82.8C148.556 75.12 137.996 71.28 124.796 71.28C111.356 71.28 100.316 75 91.676 82.44C83.036 89.88 78.476 99.96 78 112.68H103.2C103.92 104.76 106.68 98.58 111.48 94.14C116.28 89.58 122.7 87.3 130.74 87.3C138.18 87.3 143.94 89.22 148.02 93.06C152.22 96.9 154.32 102.18 154.32 108.9C154.32 115.86 151.56 121.14 146.04 124.74C140.64 128.22 132.18 129.96 120.66 129.96H112.56V145.98H120.48C133.56 145.98 143.22 147.78 149.46 151.38C155.82 154.98 159 160.98 159 169.38C159 176.82 156.6 182.7 151.8 187.02C147.12 191.22 140.64 193.32 132.36 193.32C123.12 193.32 115.56 190.98 109.68 186.3C103.8 181.62 100.56 175.08 99.96 166.68H74.4C74.88 180.48 79.8 191.46 89.16 199.62C98.52 207.66 110.16 211.68 124.08 211.68C138.96 211.68 150.72 207.9 159.36 200.34C168.12 192.66 172.5 182.16 172.5 168.84C172.5 159.48 170.22 151.62 165.66 145.26C161.22 138.9 154.92 134.52 146.76 132.12V131.4C153.48 128.88 158.76 124.74 162.6 118.98C166.56 113.22 168.54 106.5 168.54 98.82C168.54 92.1 164.52 86.76 156.476 82.8Z" fill="#171311"/>
</svg>
